<svg xmlns="http://www.w3.org/2000/svg" xmlns:xlink="http://www.w3.org/1999/xlink" width="2000" zoomAndPan="magnify" viewBox="0 0 1500 1499.999933" height="2000" preserveAspectRatio="xMidYMid meet" version="1.0"><defs><g/><clipPath id="7009da524e"><path d="M 30 61 L 1344 61 L 1344 374.441406 L 30 374.441406 Z M 30 61 " clip-rule="nonzero"/></clipPath><clipPath id="6feb1fb8bb"><path d="M 0.0390625 0 L 192 0 L 192 240 L 0.0390625 240 Z M 0.0390625 0 " clip-rule="nonzero"/></clipPath><clipPath id="7b36956722"><rect x="0" width="1314" y="0" height="314"/></clipPath><clipPath id="a125d49cfb"><path d="M 847.382812 0.179688 L 1017.945312 0.179688 L 1017.945312 129.746094 L 847.382812 129.746094 Z M 847.382812 0.179688 " clip-rule="nonzero"/></clipPath><clipPath id="7e028fe0f7"><path d="M 932.429688 0.179688 C 885.460938 0.179688 847.382812 29.183594 847.382812 64.960938 C 847.382812 100.742188 885.460938 129.746094 932.429688 129.746094 C 979.398438 129.746094 1017.476562 100.742188 1017.476562 64.960938 C 1017.476562 29.183594 979.398438 0.179688 932.429688 0.179688 Z M 932.429688 0.179688 " clip-rule="nonzero"/></clipPath><clipPath id="502886d0d4"><path d="M 0.382812 0.179688 L 170.640625 0.179688 L 170.640625 129.746094 L 0.382812 129.746094 Z M 0.382812 0.179688 " clip-rule="nonzero"/></clipPath><clipPath id="9dcc0ee4a5"><path d="M 85.429688 0.179688 C 38.460938 0.179688 0.382812 29.183594 0.382812 64.960938 C 0.382812 100.742188 38.460938 129.746094 85.429688 129.746094 C 132.398438 129.746094 170.476562 100.742188 170.476562 64.960938 C 170.476562 29.183594 132.398438 0.179688 85.429688 0.179688 Z M 85.429688 0.179688 " clip-rule="nonzero"/></clipPath><clipPath id="8cd5acf261"><rect x="0" width="171" y="0" height="130"/></clipPath><clipPath id="be7da78956"><path d="M 48 34 L 114 34 L 114 100 L 48 100 Z M 48 34 " clip-rule="nonzero"/></clipPath><clipPath id="a9100e6eee"><path d="M 36.078125 57.207031 L 90.625 21.667969 L 126.164062 76.214844 L 71.617188 111.753906 Z M 36.078125 57.207031 " clip-rule="nonzero"/></clipPath><clipPath id="6c2249904f"><path d="M 63.351562 39.4375 C 48.289062 49.25 44.035156 69.417969 53.847656 84.480469 C 63.664062 99.542969 83.828125 103.796875 98.890625 93.984375 C 113.953125 84.171875 118.210938 64.003906 108.394531 48.941406 C 98.582031 33.878906 78.414062 29.625 63.351562 39.4375 Z M 63.351562 39.4375 " clip-rule="nonzero"/></clipPath><clipPath id="13360b2818"><path d="M 0 0 L 66 0 L 66 66 L 0 66 Z M 0 0 " clip-rule="nonzero"/></clipPath><clipPath id="821caaa3f3"><path d="M -11.921875 23.207031 L 42.625 -12.332031 L 78.164062 42.214844 L 23.617188 77.753906 Z M -11.921875 23.207031 " clip-rule="nonzero"/></clipPath><clipPath id="6982e58b67"><path d="M 15.351562 5.4375 C 0.289062 15.25 -3.964844 35.417969 5.847656 50.480469 C 15.664062 65.542969 35.828125 69.796875 50.890625 59.984375 C 65.953125 50.171875 70.210938 30.003906 60.394531 14.941406 C 50.582031 -0.121094 30.414062 -4.375 15.351562 5.4375 Z M 15.351562 5.4375 " clip-rule="nonzero"/></clipPath><clipPath id="a8d63fa595"><rect x="0" width="66" y="0" height="66"/></clipPath><clipPath id="ec3f416003"><path d="M 13 57 L 79 57 L 79 123 L 13 123 Z M 13 57 " clip-rule="nonzero"/></clipPath><clipPath id="198f39aa28"><path d="M 0.777344 80.328125 L 55.328125 44.789062 L 90.867188 99.335938 L 36.316406 134.875 Z M 0.777344 80.328125 " clip-rule="nonzero"/></clipPath><clipPath id="ea772d2ac0"><path d="M 28.050781 62.558594 C 12.988281 72.371094 8.734375 92.539062 18.546875 107.601562 C 28.363281 122.664062 48.527344 126.921875 63.59375 117.105469 C 78.65625 107.292969 82.910156 87.125 73.097656 72.0625 C 63.28125 57 43.117188 52.746094 28.050781 62.558594 Z M 28.050781 62.558594 " clip-rule="nonzero"/></clipPath><clipPath id="e0573adad0"><path d="M 0 0 L 66 0 L 66 66 L 0 66 Z M 0 0 " clip-rule="nonzero"/></clipPath><clipPath id="ebb60e3f9a"><path d="M -12.222656 23.328125 L 42.328125 -12.210938 L 77.867188 42.335938 L 23.316406 77.875 Z M -12.222656 23.328125 " clip-rule="nonzero"/></clipPath><clipPath id="f3d02de144"><path d="M 15.050781 5.558594 C -0.0117188 15.371094 -4.265625 35.539062 5.546875 50.601562 C 15.363281 65.664062 35.527344 69.921875 50.59375 60.105469 C 65.65625 50.292969 69.910156 30.125 60.097656 15.0625 C 50.28125 0 30.117188 -4.253906 15.050781 5.558594 Z M 15.050781 5.558594 " clip-rule="nonzero"/></clipPath><clipPath id="2503501770"><rect x="0" width="66" y="0" height="66"/></clipPath><clipPath id="0d7e86cc0e"><path d="M 601 49 L 636 49 L 636 84 L 601 84 Z M 601 49 " clip-rule="nonzero"/></clipPath><clipPath id="d40414db50"><path d="M 595.308594 61.816406 L 623.308594 43.574219 L 641.550781 71.574219 L 613.550781 89.816406 Z M 595.308594 61.816406 " clip-rule="nonzero"/></clipPath><clipPath id="252a75e418"><path d="M 609.308594 52.695312 C 601.574219 57.734375 599.390625 68.085938 604.429688 75.816406 C 609.464844 83.550781 619.816406 85.734375 627.550781 80.695312 C 635.28125 75.65625 637.464844 65.304688 632.429688 57.574219 C 627.390625 49.84375 617.039062 47.65625 609.308594 52.695312 Z M 609.308594 52.695312 " clip-rule="nonzero"/></clipPath><clipPath id="3cc865b60d"><path d="M 0 0 L 35 0 L 35 35 L 0 35 Z M 0 0 " clip-rule="nonzero"/></clipPath><clipPath id="aefb685f79"><path d="M -5.691406 12.816406 L 22.308594 -5.425781 L 40.550781 22.574219 L 12.550781 40.816406 Z M -5.691406 12.816406 " clip-rule="nonzero"/></clipPath><clipPath id="9d23409fa4"><path d="M 8.308594 3.695312 C 0.574219 8.734375 -1.609375 19.085938 3.429688 26.816406 C 8.464844 34.550781 18.816406 36.734375 26.550781 31.695312 C 34.28125 26.65625 36.464844 16.304688 31.429688 8.574219 C 26.390625 0.84375 16.039062 -1.34375 8.308594 3.695312 Z M 8.308594 3.695312 " clip-rule="nonzero"/></clipPath><clipPath id="c1e29124ab"><rect x="0" width="35" y="0" height="35"/></clipPath><clipPath id="f841e166a4"><path d="M 624 71 L 659 71 L 659 106 L 624 106 Z M 624 71 " clip-rule="nonzero"/></clipPath><clipPath id="58d49a9e28"><path d="M 618.429688 83.738281 L 646.429688 65.496094 L 664.671875 93.496094 L 636.671875 111.738281 Z M 618.429688 83.738281 " clip-rule="nonzero"/></clipPath><clipPath id="367e1fc9fe"><path d="M 632.429688 74.617188 C 624.695312 79.65625 622.511719 90.007812 627.550781 97.738281 C 632.585938 105.46875 642.9375 107.65625 650.671875 102.617188 C 658.402344 97.578125 660.585938 87.226562 655.550781 79.496094 C 650.511719 71.761719 640.160156 69.578125 632.429688 74.617188 Z M 632.429688 74.617188 " clip-rule="nonzero"/></clipPath><clipPath id="688dd3b75d"><path d="M 0 0 L 35 0 L 35 35 L 0 35 Z M 0 0 " clip-rule="nonzero"/></clipPath><clipPath id="b678ebbe49"><path d="M -5.570312 12.738281 L 22.429688 -5.503906 L 40.671875 22.496094 L 12.671875 40.738281 Z M -5.570312 12.738281 " clip-rule="nonzero"/></clipPath><clipPath id="10bb35e021"><path d="M 8.429688 3.617188 C 0.695312 8.65625 -1.488281 19.007812 3.550781 26.738281 C 8.585938 34.46875 18.9375 36.65625 26.671875 31.617188 C 34.402344 26.578125 36.585938 16.226562 31.550781 8.496094 C 26.511719 0.761719 16.160156 -1.421875 8.429688 3.617188 Z M 8.429688 3.617188 " clip-rule="nonzero"/></clipPath><clipPath id="40b58d11a6"><rect x="0" width="35" y="0" height="35"/></clipPath><clipPath id="9e937d64c3"><path d="M 624 53 L 659 53 L 659 88 L 624 88 Z M 624 53 " clip-rule="nonzero"/></clipPath><clipPath id="01f5a504fa"><path d="M 618.429688 65.820312 L 646.429688 47.578125 L 664.671875 75.578125 L 636.671875 93.820312 Z M 618.429688 65.820312 " clip-rule="nonzero"/></clipPath><clipPath id="90f9493a3e"><path d="M 632.429688 56.699219 C 624.695312 61.734375 622.511719 72.085938 627.550781 79.820312 C 632.585938 87.550781 642.9375 89.734375 650.671875 84.699219 C 658.402344 79.660156 660.585938 69.308594 655.550781 61.578125 C 650.511719 53.84375 640.160156 51.660156 632.429688 56.699219 Z M 632.429688 56.699219 " clip-rule="nonzero"/></clipPath><clipPath id="27441ffd19"><path d="M 0 0 L 35 0 L 35 35 L 0 35 Z M 0 0 " clip-rule="nonzero"/></clipPath><clipPath id="a709c2c9f6"><path d="M -5.570312 12.820312 L 22.429688 -5.421875 L 40.671875 22.578125 L 12.671875 40.820312 Z M -5.570312 12.820312 " clip-rule="nonzero"/></clipPath><clipPath id="1a9cfbadf6"><path d="M 8.429688 3.699219 C 0.695312 8.734375 -1.488281 19.085938 3.550781 26.820312 C 8.585938 34.550781 18.9375 36.734375 26.671875 31.699219 C 34.402344 26.660156 36.585938 16.308594 31.550781 8.578125 C 26.511719 0.84375 16.160156 -1.339844 8.429688 3.699219 Z M 8.429688 3.699219 " clip-rule="nonzero"/></clipPath><clipPath id="8ee8e1f768"><rect x="0" width="35" y="0" height="35"/></clipPath><clipPath id="7481e2075f"><path d="M 1360.390625 243 L 1405 243 L 1405 287 L 1360.390625 287 Z M 1360.390625 243 " clip-rule="nonzero"/></clipPath><clipPath id="74524c3047"><rect x="0" width="1447" y="0" height="375"/></clipPath></defs><g transform="matrix(1, 0, 0, 1, 23, 545)"><g clip-path="url(#74524c3047)"><g clip-path="url(#7009da524e)"><g transform="matrix(1, 0, 0, 1, 30, 61)"><g clip-path="url(#7b36956722)"><g clip-path="url(#6feb1fb8bb)"><g fill="#374151" fill-opacity="1"><g transform="translate(2.435781, 236.940326)"><g><path d="M -1.625 -117.03125 C -1.625 -130.144531 -0.734375 -142.6875 1.046875 -154.65625 C 2.835938 -166.632812 5.816406 -177.582031 9.984375 -187.5 C 14.160156 -197.414062 19.878906 -206.054688 27.140625 -213.421875 C 34.398438 -220.796875 43.472656 -226.484375 54.359375 -230.484375 C 65.253906 -234.492188 78.34375 -236.5 93.625 -236.5 C 108.90625 -236.5 121.988281 -234.492188 132.875 -230.484375 C 143.769531 -226.484375 152.847656 -220.796875 160.109375 -213.421875 C 167.367188 -206.054688 173.082031 -197.414062 177.25 -187.5 C 181.425781 -177.582031 184.40625 -166.660156 186.1875 -154.734375 C 187.976562 -142.816406 188.875 -130.25 188.875 -117.03125 C 188.875 -103.914062 187.976562 -91.367188 186.1875 -79.390625 C 184.40625 -67.421875 181.425781 -56.476562 177.25 -46.5625 C 173.082031 -36.65625 167.367188 -28.015625 160.109375 -20.640625 C 152.847656 -13.273438 143.769531 -7.585938 132.875 -3.578125 C 121.988281 0.429688 108.90625 2.4375 93.625 2.4375 C 78.34375 2.4375 65.253906 0.429688 54.359375 -3.578125 C 43.472656 -7.585938 34.398438 -13.273438 27.140625 -20.640625 C 19.878906 -28.015625 14.160156 -36.65625 9.984375 -46.5625 C 5.816406 -56.476562 2.835938 -67.421875 1.046875 -79.390625 C -0.734375 -91.367188 -1.625 -103.914062 -1.625 -117.03125 Z M 61.609375 -117.03125 C 61.609375 -107.382812 62.015625 -98.332031 62.828125 -89.875 C 63.640625 -81.425781 65.179688 -74.003906 67.453125 -67.609375 C 69.734375 -61.222656 72.957031 -56.210938 77.125 -52.578125 C 81.300781 -48.953125 86.800781 -47.140625 93.625 -47.140625 C 100.457031 -47.140625 105.957031 -48.953125 110.125 -52.578125 C 114.300781 -56.210938 117.523438 -61.222656 119.796875 -67.609375 C 122.066406 -74.003906 123.609375 -81.425781 124.421875 -89.875 C 125.242188 -98.332031 125.65625 -107.382812 125.65625 -117.03125 C 125.65625 -126.675781 125.242188 -135.722656 124.421875 -144.171875 C 123.609375 -152.628906 122.066406 -160.082031 119.796875 -166.53125 C 117.523438 -172.976562 114.300781 -178.015625 110.125 -181.640625 C 105.957031 -185.273438 100.457031 -187.09375 93.625 -187.09375 C 86.800781 -187.09375 81.300781 -185.273438 77.125 -181.640625 C 72.957031 -178.015625 69.734375 -172.976562 67.453125 -166.53125 C 65.179688 -160.082031 63.640625 -152.628906 62.828125 -144.171875 C 62.015625 -135.722656 61.609375 -126.675781 61.609375 -117.03125 Z M 61.609375 -117.03125 "/></g></g></g></g><g fill="#374151" fill-opacity="1"><g transform="translate(189.672944, 236.940326)"><g><path d="M 1.625 -139.625 C 1.625 -143.414062 3.140625 -146.367188 6.171875 -148.484375 C 9.210938 -150.597656 13.0625 -152.332031 17.71875 -153.6875 C 22.375 -155.039062 27.140625 -156.367188 32.015625 -157.671875 C 33.972656 -158.210938 36.441406 -158.890625 39.421875 -159.703125 C 42.398438 -160.515625 45.429688 -161.328125 48.515625 -162.140625 C 51.609375 -162.953125 54.375 -163.628906 56.8125 -164.171875 C 59.25 -164.710938 61.007812 -164.984375 62.09375 -164.984375 C 65.125 -164.984375 68.019531 -163.816406 70.78125 -161.484375 C 73.550781 -159.160156 75.800781 -154.851562 77.53125 -148.5625 C 77.75 -147.695312 78.101562 -146.992188 78.59375 -146.453125 C 79.082031 -145.910156 79.867188 -145.640625 80.953125 -145.640625 C 81.921875 -145.640625 83.707031 -146.613281 86.3125 -148.5625 C 88.914062 -150.519531 92.273438 -152.769531 96.390625 -155.3125 C 100.503906 -157.863281 105.378906 -160.113281 111.015625 -162.0625 C 116.648438 -164.007812 123.046875 -164.984375 130.203125 -164.984375 C 140.054688 -164.984375 148.019531 -162.785156 154.09375 -158.390625 C 160.164062 -154.003906 164.632812 -147.960938 167.5 -140.265625 C 170.375 -132.578125 171.8125 -123.75 171.8125 -113.78125 L 171.8125 -81.265625 C 171.8125 -73.796875 172.539062 -66.914062 174 -60.625 C 175.46875 -54.34375 177.203125 -48.519531 179.203125 -43.15625 C 181.210938 -37.789062 182.945312 -32.75 184.40625 -28.03125 C 185.875 -23.320312 186.609375 -18.800781 186.609375 -14.46875 C 186.609375 -10.5625 185.660156 -7.601562 183.765625 -5.59375 C 181.867188 -3.59375 179.535156 -2.1875 176.765625 -1.375 C 174.003906 -0.5625 171.269531 -0.128906 168.5625 -0.078125 C 165.851562 -0.0234375 163.628906 0 161.890625 0 L 131.5 0 C 130.09375 0 128.171875 0 125.734375 0 C 123.296875 0 120.664062 -0.1875 117.84375 -0.5625 C 115.03125 -0.945312 112.320312 -1.625 109.71875 -2.59375 C 107.113281 -3.570312 105 -5.007812 103.375 -6.90625 C 101.75 -8.800781 100.9375 -11.320312 100.9375 -14.46875 C 100.9375 -21.726562 101.722656 -29.015625 103.296875 -36.328125 C 104.867188 -43.640625 106.441406 -51.035156 108.015625 -58.515625 C 109.585938 -65.992188 110.265625 -73.578125 110.046875 -81.265625 C 109.929688 -84.628906 109.65625 -88.179688 109.21875 -91.921875 C 108.789062 -95.660156 108.035156 -99.179688 106.953125 -102.484375 C 105.867188 -105.785156 104.296875 -108.492188 102.234375 -110.609375 C 100.179688 -112.722656 97.53125 -113.78125 94.28125 -113.78125 C 90.8125 -113.78125 88.046875 -112.722656 85.984375 -110.609375 C 83.929688 -108.492188 82.414062 -105.785156 81.4375 -102.484375 C 80.457031 -99.179688 79.832031 -95.632812 79.5625 -91.84375 C 79.289062 -88.050781 79.15625 -84.523438 79.15625 -81.265625 C 79.15625 -74.984375 79.914062 -68.804688 81.4375 -62.734375 C 82.957031 -56.671875 84.691406 -50.820312 86.640625 -45.1875 C 88.585938 -39.550781 90.316406 -34.160156 91.828125 -29.015625 C 93.347656 -23.867188 94.109375 -19.019531 94.109375 -14.46875 C 94.109375 -11.320312 93.296875 -8.800781 91.671875 -6.90625 C 90.046875 -5.007812 87.929688 -3.570312 85.328125 -2.59375 C 82.734375 -1.625 80.023438 -0.945312 77.203125 -0.5625 C 74.390625 -0.1875 71.765625 0 69.328125 0 C 66.890625 0 64.96875 0 63.5625 0 L 27.46875 0 C 25.738281 0 23.519531 -0.0234375 20.8125 -0.078125 C 18.101562 -0.128906 15.363281 -0.5625 12.59375 -1.375 C 9.832031 -2.1875 7.503906 -3.59375 5.609375 -5.59375 C 3.710938 -7.601562 2.765625 -10.5625 2.765625 -14.46875 C 2.765625 -18.800781 3.492188 -23.320312 4.953125 -28.03125 C 6.421875 -32.75 8.15625 -37.789062 10.15625 -43.15625 C 12.164062 -48.519531 13.898438 -54.34375 15.359375 -60.625 C 16.828125 -66.914062 17.5625 -73.796875 17.5625 -81.265625 C 17.5625 -88.421875 17.015625 -94.488281 15.921875 -99.46875 C 14.835938 -104.457031 13.507812 -108.738281 11.9375 -112.3125 C 10.375 -115.894531 8.804688 -119.09375 7.234375 -121.90625 C 5.660156 -124.726562 4.332031 -127.519531 3.25 -130.28125 C 2.164062 -133.039062 1.625 -136.15625 1.625 -139.625 Z M 1.625 -139.625 "/></g></g></g><g fill="#f56d61" fill-opacity="1"><g transform="translate(377.887549, 236.940326)"><g><path d="M 3.25 -14.796875 C 3.25 -19.234375 3.597656 -23.238281 4.296875 -26.8125 C 5.003906 -30.394531 5.925781 -33.972656 7.0625 -37.546875 C 8.207031 -41.117188 9.398438 -45.125 10.640625 -49.5625 C 11.890625 -54.007812 13.082031 -59.269531 14.21875 -65.34375 C 15.351562 -71.414062 16.273438 -78.648438 16.984375 -87.046875 C 17.691406 -95.441406 18.046875 -105.4375 18.046875 -117.03125 C 18.046875 -128.625 17.691406 -138.617188 16.984375 -147.015625 C 16.273438 -155.421875 15.351562 -162.65625 14.21875 -168.71875 C 13.082031 -174.789062 11.890625 -180.046875 10.640625 -184.484375 C 9.398438 -188.929688 8.207031 -192.941406 7.0625 -196.515625 C 5.925781 -200.097656 5.003906 -203.703125 4.296875 -207.328125 C 3.597656 -210.960938 3.25 -214.945312 3.25 -219.28125 C 3.25 -223.289062 4.195312 -226.320312 6.09375 -228.375 C 7.988281 -230.4375 10.316406 -231.875 13.078125 -232.6875 C 15.847656 -233.5 18.585938 -233.929688 21.296875 -233.984375 C 24.003906 -234.035156 26.222656 -234.0625 27.953125 -234.0625 L 60.140625 -234.0625 C 62.304688 -234.0625 64.632812 -233.84375 67.125 -233.40625 C 69.625 -232.976562 71.925781 -232.164062 74.03125 -230.96875 C 76.144531 -229.78125 77.742188 -227.941406 78.828125 -225.453125 L 78.828125 -225.609375 L 111.1875 -154.90625 C 112.695312 -151.757812 114.320312 -150.1875 116.0625 -150.1875 C 117.90625 -150.1875 119.53125 -151.707031 120.9375 -154.75 C 124.1875 -161.570312 127.4375 -168.882812 130.6875 -176.6875 C 133.9375 -184.488281 137.320312 -192.425781 140.84375 -200.5 C 144.363281 -208.570312 148.128906 -216.398438 152.140625 -223.984375 C 153.003906 -226.910156 154.519531 -229.078125 156.6875 -230.484375 C 158.863281 -231.898438 161.273438 -232.847656 163.921875 -233.328125 C 166.578125 -233.816406 169.046875 -234.0625 171.328125 -234.0625 L 218.140625 -234.0625 C 219.867188 -234.0625 222.085938 -234.035156 224.796875 -233.984375 C 227.503906 -233.929688 230.238281 -233.5 233 -232.6875 C 235.769531 -231.875 238.101562 -230.4375 240 -228.375 C 241.894531 -226.320312 242.84375 -223.289062 242.84375 -219.28125 C 242.84375 -214.945312 242.488281 -210.960938 241.78125 -207.328125 C 241.082031 -203.703125 240.160156 -200.097656 239.015625 -196.515625 C 237.878906 -192.941406 236.6875 -188.929688 235.4375 -184.484375 C 234.195312 -180.046875 233.007812 -174.789062 231.875 -168.71875 C 230.738281 -162.65625 229.816406 -155.421875 229.109375 -147.015625 C 228.398438 -138.617188 228.046875 -128.625 228.046875 -117.03125 C 228.046875 -105.4375 228.398438 -95.441406 229.109375 -87.046875 C 229.816406 -78.648438 230.738281 -71.414062 231.875 -65.34375 C 233.007812 -59.269531 234.195312 -54.007812 235.4375 -49.5625 C 236.6875 -45.125 237.878906 -41.117188 239.015625 -37.546875 C 240.160156 -33.972656 241.082031 -30.394531 241.78125 -26.8125 C 242.488281 -23.238281 242.84375 -19.234375 242.84375 -14.796875 C 242.84375 -10.785156 241.894531 -7.75 240 -5.6875 C 238.101562 -3.625 235.769531 -2.1875 233 -1.375 C 230.238281 -0.5625 227.503906 -0.128906 224.796875 -0.078125 C 222.085938 -0.0234375 219.867188 0 218.140625 0 L 176.203125 0 C 173.492188 0 170.703125 -0.109375 167.828125 -0.328125 C 164.953125 -0.546875 162.269531 -1.085938 159.78125 -1.953125 C 157.289062 -2.816406 155.285156 -4.273438 153.765625 -6.328125 C 152.253906 -8.390625 151.5 -11.210938 151.5 -14.796875 C 151.5 -19.234375 151.769531 -23.238281 152.3125 -26.8125 C 152.851562 -30.394531 153.554688 -33.972656 154.421875 -37.546875 C 155.285156 -41.117188 156.175781 -45.125 157.09375 -49.5625 C 158.019531 -54.007812 158.914062 -59.269531 159.78125 -65.34375 C 160.644531 -71.414062 161.347656 -78.648438 161.890625 -87.046875 C 162.429688 -95.441406 162.703125 -105.4375 162.703125 -117.03125 L 119.140625 -39.984375 C 118.492188 -38.359375 117.4375 -37.113281 115.96875 -36.25 C 114.507812 -35.382812 113.019531 -34.953125 111.5 -34.953125 C 108.25 -34.953125 105.8125 -36.578125 104.1875 -39.828125 L 65.1875 -113.78125 C 65.289062 -102.726562 65.691406 -93.164062 66.390625 -85.09375 C 67.097656 -77.019531 68.019531 -70.054688 69.15625 -64.203125 C 70.300781 -58.347656 71.492188 -53.253906 72.734375 -48.921875 C 73.984375 -44.585938 75.148438 -40.660156 76.234375 -37.140625 C 77.316406 -33.617188 78.207031 -30.097656 78.90625 -26.578125 C 79.613281 -23.054688 79.96875 -19.128906 79.96875 -14.796875 C 79.96875 -11.210938 79.207031 -8.390625 77.6875 -6.328125 C 76.175781 -4.273438 74.171875 -2.816406 71.671875 -1.953125 C 69.179688 -1.085938 66.5 -0.546875 63.625 -0.328125 C 60.757812 -0.109375 57.972656 0 55.265625 0 L 27.953125 0 C 26.222656 0 24.003906 -0.0234375 21.296875 -0.078125 C 18.585938 -0.128906 15.847656 -0.5625 13.078125 -1.375 C 10.316406 -2.1875 7.988281 -3.625 6.09375 -5.6875 C 4.195312 -7.75 3.25 -10.785156 3.25 -14.796875 Z M 3.25 -14.796875 "/></g></g></g><g fill="#f56d61" fill-opacity="1"><g transform="translate(623.961389, 236.940326)"><g><path d="M 4.0625 -81.265625 C 4.0625 -92.535156 5.332031 -102.453125 7.875 -111.015625 C 10.425781 -119.578125 13.867188 -126.945312 18.203125 -133.125 C 22.535156 -139.300781 27.359375 -144.421875 32.671875 -148.484375 C 37.984375 -152.546875 43.457031 -155.796875 49.09375 -158.234375 C 54.726562 -160.671875 60.144531 -162.40625 65.34375 -163.4375 C 70.539062 -164.46875 75.09375 -164.984375 79 -164.984375 C 86.039062 -165.085938 91.644531 -164.921875 95.8125 -164.484375 C 99.988281 -164.054688 103.457031 -163.625 106.21875 -163.1875 C 108.988281 -162.757812 111.726562 -162.546875 114.4375 -162.546875 C 120.070312 -162.546875 124.617188 -162.757812 128.078125 -163.1875 C 131.546875 -163.625 134.550781 -164.03125 137.09375 -164.40625 C 139.644531 -164.789062 142.171875 -164.984375 144.671875 -164.984375 C 146.398438 -164.984375 148.425781 -164.765625 150.75 -164.328125 C 153.082031 -163.898438 155.382812 -163.035156 157.65625 -161.734375 C 159.9375 -160.429688 161.835938 -158.585938 163.359375 -156.203125 C 164.878906 -153.816406 165.640625 -150.675781 165.640625 -146.78125 C 165.640625 -142.988281 165.066406 -139.03125 163.921875 -134.90625 C 162.785156 -130.789062 161.515625 -126.238281 160.109375 -121.25 C 158.703125 -116.269531 157.425781 -110.53125 156.28125 -104.03125 C 155.144531 -97.53125 154.578125 -89.941406 154.578125 -81.265625 C 154.578125 -73.796875 154.984375 -67.429688 155.796875 -62.171875 C 156.609375 -56.921875 157.640625 -52.367188 158.890625 -48.515625 C 160.140625 -44.671875 161.382812 -41.3125 162.625 -38.4375 C 163.875 -35.570312 164.90625 -32.835938 165.71875 -30.234375 C 166.53125 -27.628906 166.9375 -24.863281 166.9375 -21.9375 C 166.9375 -17.175781 165.09375 -12.953125 161.40625 -9.265625 C 157.71875 -5.578125 152.785156 -2.703125 146.609375 -0.640625 C 140.441406 1.410156 133.507812 2.4375 125.8125 2.4375 C 122.445312 2.4375 119.84375 1.945312 118 0.96875 C 116.164062 0 114.675781 -1.101562 113.53125 -2.34375 C 112.394531 -3.59375 111.175781 -4.707031 109.875 -5.6875 C 108.582031 -6.664062 106.851562 -7.15625 104.6875 -7.15625 C 102.300781 -7.15625 100.1875 -6.664062 98.34375 -5.6875 C 96.5 -4.707031 94.410156 -3.59375 92.078125 -2.34375 C 89.753906 -1.101562 86.859375 0 83.390625 0.96875 C 79.921875 1.945312 75.367188 2.4375 69.734375 2.4375 C 60.734375 2.4375 52.25 0.429688 44.28125 -3.578125 C 36.320312 -7.585938 29.332031 -13.273438 23.3125 -20.640625 C 17.300781 -28.015625 12.585938 -36.847656 9.171875 -47.140625 C 5.765625 -57.429688 4.0625 -68.804688 4.0625 -81.265625 Z M 80.296875 -122.078125 C 75.960938 -122.078125 72.46875 -118.335938 69.8125 -110.859375 C 67.15625 -103.378906 65.828125 -93.515625 65.828125 -81.265625 C 65.828125 -69.128906 67.15625 -59.320312 69.8125 -51.84375 C 72.46875 -44.375 75.960938 -40.640625 80.296875 -40.640625 C 84.628906 -40.640625 88.125 -44.375 90.78125 -51.84375 C 93.4375 -59.320312 94.765625 -69.128906 94.765625 -81.265625 C 94.765625 -93.515625 93.4375 -103.378906 90.78125 -110.859375 C 88.125 -118.335938 84.628906 -122.078125 80.296875 -122.078125 Z M 80.296875 -122.078125 "/></g></g></g><g fill="#f56d61" fill-opacity="1"><g transform="translate(792.344799, 236.940326)"><g><path d="M 1.625 -139.625 C 1.625 -143.414062 3.140625 -146.367188 6.171875 -148.484375 C 9.210938 -150.597656 13.0625 -152.332031 17.71875 -153.6875 C 22.375 -155.039062 27.140625 -156.367188 32.015625 -157.671875 C 33.972656 -158.210938 36.441406 -158.890625 39.421875 -159.703125 C 42.398438 -160.515625 45.429688 -161.328125 48.515625 -162.140625 C 51.609375 -162.953125 54.375 -163.628906 56.8125 -164.171875 C 59.25 -164.710938 61.007812 -164.984375 62.09375 -164.984375 C 65.125 -164.984375 68.019531 -163.816406 70.78125 -161.484375 C 73.550781 -159.160156 75.800781 -154.851562 77.53125 -148.5625 C 77.75 -147.695312 78.101562 -146.992188 78.59375 -146.453125 C 79.082031 -145.910156 79.867188 -145.640625 80.953125 -145.640625 C 81.921875 -145.640625 83.707031 -146.613281 86.3125 -148.5625 C 88.914062 -150.519531 92.273438 -152.769531 96.390625 -155.3125 C 100.503906 -157.863281 105.378906 -160.113281 111.015625 -162.0625 C 116.648438 -164.007812 123.046875 -164.984375 130.203125 -164.984375 C 140.054688 -164.984375 148.019531 -162.785156 154.09375 -158.390625 C 160.164062 -154.003906 164.632812 -147.960938 167.5 -140.265625 C 170.375 -132.578125 171.8125 -123.75 171.8125 -113.78125 L 171.8125 -81.265625 C 171.8125 -73.796875 172.539062 -66.914062 174 -60.625 C 175.46875 -54.34375 177.203125 -48.519531 179.203125 -43.15625 C 181.210938 -37.789062 182.945312 -32.75 184.40625 -28.03125 C 185.875 -23.320312 186.609375 -18.800781 186.609375 -14.46875 C 186.609375 -10.5625 185.660156 -7.601562 183.765625 -5.59375 C 181.867188 -3.59375 179.535156 -2.1875 176.765625 -1.375 C 174.003906 -0.5625 171.269531 -0.128906 168.5625 -0.078125 C 165.851562 -0.0234375 163.628906 0 161.890625 0 L 131.5 0 C 130.09375 0 128.171875 0 125.734375 0 C 123.296875 0 120.664062 -0.1875 117.84375 -0.5625 C 115.03125 -0.945312 112.320312 -1.625 109.71875 -2.59375 C 107.113281 -3.570312 105 -5.007812 103.375 -6.90625 C 101.75 -8.800781 100.9375 -11.320312 100.9375 -14.46875 C 100.9375 -21.726562 101.722656 -29.015625 103.296875 -36.328125 C 104.867188 -43.640625 106.441406 -51.035156 108.015625 -58.515625 C 109.585938 -65.992188 110.265625 -73.578125 110.046875 -81.265625 C 109.929688 -84.628906 109.65625 -88.179688 109.21875 -91.921875 C 108.789062 -95.660156 108.035156 -99.179688 106.953125 -102.484375 C 105.867188 -105.785156 104.296875 -108.492188 102.234375 -110.609375 C 100.179688 -112.722656 97.53125 -113.78125 94.28125 -113.78125 C 90.8125 -113.78125 88.046875 -112.722656 85.984375 -110.609375 C 83.929688 -108.492188 82.414062 -105.785156 81.4375 -102.484375 C 80.457031 -99.179688 79.832031 -95.632812 79.5625 -91.84375 C 79.289062 -88.050781 79.15625 -84.523438 79.15625 -81.265625 C 79.15625 -74.984375 79.914062 -68.804688 81.4375 -62.734375 C 82.957031 -56.671875 84.691406 -50.820312 86.640625 -45.1875 C 88.585938 -39.550781 90.316406 -34.160156 91.828125 -29.015625 C 93.347656 -23.867188 94.109375 -19.019531 94.109375 -14.46875 C 94.109375 -11.320312 93.296875 -8.800781 91.671875 -6.90625 C 90.046875 -5.007812 87.929688 -3.570312 85.328125 -2.59375 C 82.734375 -1.625 80.023438 -0.945312 77.203125 -0.5625 C 74.390625 -0.1875 71.765625 0 69.328125 0 C 66.890625 0 64.96875 0 63.5625 0 L 27.46875 0 C 25.738281 0 23.519531 -0.0234375 20.8125 -0.078125 C 18.101562 -0.128906 15.363281 -0.5625 12.59375 -1.375 C 9.832031 -2.1875 7.503906 -3.59375 5.609375 -5.59375 C 3.710938 -7.601562 2.765625 -10.5625 2.765625 -14.46875 C 2.765625 -18.800781 3.492188 -23.320312 4.953125 -28.03125 C 6.421875 -32.75 8.15625 -37.789062 10.15625 -43.15625 C 12.164062 -48.519531 13.898438 -54.34375 15.359375 -60.625 C 16.828125 -66.914062 17.5625 -73.796875 17.5625 -81.265625 C 17.5625 -88.421875 17.015625 -94.488281 15.921875 -99.46875 C 14.835938 -104.457031 13.507812 -108.738281 11.9375 -112.3125 C 10.375 -115.894531 8.804688 -119.09375 7.234375 -121.90625 C 5.660156 -124.726562 4.332031 -127.519531 3.25 -130.28125 C 2.164062 -133.039062 1.625 -136.15625 1.625 -139.625 Z M 1.625 -139.625 "/></g></g></g><g fill="#f56d61" fill-opacity="1"><g transform="translate(980.557181, 236.940326)"><g><path d="M 76.390625 75.90625 C 67.722656 75.90625 59.109375 74.875 50.546875 72.8125 C 41.984375 70.757812 34.207031 67.863281 27.21875 64.125 C 20.238281 60.382812 14.632812 56.019531 10.40625 51.03125 C 6.175781 46.050781 4.0625 40.582031 4.0625 34.625 C 4.0625 29.414062 5.195312 24.347656 7.46875 19.421875 C 9.75 14.492188 12.835938 10.429688 16.734375 7.234375 C 20.640625 4.035156 24.976562 2.4375 29.75 2.4375 C 32.78125 2.4375 35.539062 3.003906 38.03125 4.140625 C 40.53125 5.285156 43.050781 6.671875 45.59375 8.296875 C 48.144531 9.921875 50.988281 11.570312 54.125 13.25 C 57.269531 14.925781 61.007812 16.332031 65.34375 17.46875 C 69.675781 18.613281 74.929688 19.1875 81.109375 19.1875 C 83.929688 19.1875 86.585938 18.476562 89.078125 17.0625 C 91.566406 15.65625 93.625 13.8125 95.25 11.53125 C 96.875 9.257812 97.738281 6.796875 97.84375 4.140625 C 97.957031 1.484375 96.929688 -1.140625 94.765625 -3.734375 C 93.578125 -2.328125 91.460938 -1.132812 88.421875 -0.15625 C 85.390625 0.8125 82.003906 1.507812 78.265625 1.9375 C 74.523438 2.375 70.921875 2.59375 67.453125 2.59375 C 57.378906 2.59375 48.441406 0.398438 40.640625 -3.984375 C 32.835938 -8.367188 26.253906 -14.40625 20.890625 -22.09375 C 15.523438 -29.789062 11.488281 -38.675781 8.78125 -48.75 C 6.070312 -58.832031 4.71875 -69.617188 4.71875 -81.109375 C 4.71875 -92.378906 6.015625 -102.238281 8.609375 -110.6875 C 11.210938 -119.144531 14.707031 -126.351562 19.09375 -132.3125 C 23.488281 -138.269531 28.367188 -143.195312 33.734375 -147.09375 C 39.097656 -151 44.566406 -154.0625 50.140625 -156.28125 C 55.722656 -158.507812 61.003906 -160.082031 65.984375 -161 C 70.972656 -161.925781 75.203125 -162.390625 78.671875 -162.390625 L 147.109375 -162.390625 C 148.835938 -162.390625 151.054688 -162.359375 153.765625 -162.296875 C 156.472656 -162.242188 159.207031 -161.8125 161.96875 -161 C 164.738281 -160.1875 167.070312 -158.773438 168.96875 -156.765625 C 170.863281 -154.765625 171.8125 -151.816406 171.8125 -147.921875 C 171.8125 -144.128906 171.078125 -140.363281 169.609375 -136.625 C 168.148438 -132.882812 166.414062 -128.875 164.40625 -124.59375 C 162.40625 -120.3125 160.671875 -115.429688 159.203125 -109.953125 C 157.742188 -104.484375 157.015625 -98.117188 157.015625 -90.859375 C 157.015625 -81.648438 157.445312 -73.359375 158.3125 -65.984375 C 159.1875 -58.617188 160.164062 -51.492188 161.25 -44.609375 C 162.332031 -37.734375 163.304688 -30.53125 164.171875 -23 C 165.035156 -15.46875 165.46875 -6.9375 165.46875 2.59375 C 165.46875 12.132812 163.757812 21.289062 160.34375 30.0625 C 156.9375 38.84375 151.628906 46.671875 144.421875 53.546875 C 137.210938 60.429688 127.972656 65.878906 116.703125 69.890625 C 105.429688 73.898438 91.992188 75.90625 76.390625 75.90625 Z M 66.640625 -81.265625 C 66.640625 -69.128906 67.96875 -59.320312 70.625 -51.84375 C 73.28125 -44.375 76.773438 -40.640625 81.109375 -40.640625 C 85.441406 -40.640625 88.9375 -44.375 91.59375 -51.84375 C 94.25 -59.320312 95.578125 -69.128906 95.578125 -81.265625 C 95.578125 -93.515625 94.25 -103.378906 91.59375 -110.859375 C 88.9375 -118.335938 85.441406 -122.078125 81.109375 -122.078125 C 76.773438 -122.078125 73.28125 -118.335938 70.625 -110.859375 C 67.96875 -103.378906 66.640625 -93.515625 66.640625 -81.265625 Z M 66.640625 -81.265625 "/></g></g></g><g fill="#f56d61" fill-opacity="1"><g transform="translate(1153.979104, 236.940326)"><g><path d="M 4.0625 -81.265625 C 4.0625 -91.566406 5.820312 -101.703125 9.34375 -111.671875 C 12.863281 -121.640625 18.226562 -130.632812 25.4375 -138.65625 C 32.644531 -146.675781 41.75 -153.066406 52.75 -157.828125 C 63.75 -162.597656 76.78125 -164.984375 91.84375 -164.984375 C 100.1875 -164.984375 108.203125 -163.925781 115.890625 -161.8125 C 123.585938 -159.695312 130.441406 -156.5 136.453125 -152.21875 C 142.472656 -147.9375 147.242188 -142.597656 150.765625 -136.203125 C 154.285156 -129.816406 156.046875 -122.34375 156.046875 -113.78125 C 156.046875 -104.351562 154.609375 -96.171875 151.734375 -89.234375 C 148.867188 -82.296875 145.023438 -76.441406 140.203125 -71.671875 C 135.378906 -66.910156 130.039062 -62.984375 124.1875 -59.890625 C 118.332031 -56.804688 112.425781 -54.34375 106.46875 -52.5 C 100.832031 -50.769531 95.875 -49.957031 91.59375 -50.0625 C 87.3125 -50.175781 83.925781 -50.234375 81.4375 -50.234375 C 80.03125 -50.234375 78.972656 -50.097656 78.265625 -49.828125 C 77.554688 -49.554688 77.203125 -48.929688 77.203125 -47.953125 C 77.203125 -46.210938 78.148438 -44.800781 80.046875 -43.71875 C 81.953125 -42.632812 84.226562 -41.847656 86.875 -41.359375 C 89.53125 -40.878906 91.941406 -40.640625 94.109375 -40.640625 C 99.960938 -40.640625 104.894531 -41.367188 108.90625 -42.828125 C 112.914062 -44.296875 116.4375 -45.945312 119.46875 -47.78125 C 122.5 -49.625 125.421875 -51.273438 128.234375 -52.734375 C 131.054688 -54.203125 134.148438 -54.9375 137.515625 -54.9375 C 141.203125 -54.9375 144.367188 -54.039062 147.015625 -52.25 C 149.671875 -50.46875 151.835938 -48.191406 153.515625 -45.421875 C 155.203125 -42.660156 156.453125 -39.816406 157.265625 -36.890625 C 158.078125 -33.972656 158.484375 -31.320312 158.484375 -28.9375 C 158.484375 -24.0625 156.125 -19.210938 151.40625 -14.390625 C 146.695312 -9.566406 139.4375 -5.554688 129.625 -2.359375 C 119.820312 0.835938 107.226562 2.4375 91.84375 2.4375 C 77.53125 2.4375 64.925781 0.0820312 54.03125 -4.625 C 43.144531 -9.34375 33.988281 -15.710938 26.5625 -23.734375 C 19.144531 -31.753906 13.539062 -40.75 9.75 -50.71875 C 5.957031 -60.6875 4.0625 -70.867188 4.0625 -81.265625 Z M 66.8125 -98.5 C 64.101562 -91.5625 63.125 -85.953125 63.875 -81.671875 C 64.632812 -77.398438 67.019531 -75.265625 71.03125 -75.265625 C 75.144531 -75.265625 79.285156 -77.398438 83.453125 -81.671875 C 87.628906 -85.953125 91.078125 -91.5625 93.796875 -98.5 C 96.609375 -105.539062 97.609375 -111.203125 96.796875 -115.484375 C 95.984375 -119.765625 93.519531 -121.90625 89.40625 -121.90625 C 85.394531 -121.90625 81.328125 -119.765625 77.203125 -115.484375 C 73.085938 -111.203125 69.625 -105.539062 66.8125 -98.5 Z M 66.8125 -98.5 "/></g></g></g></g></g></g><g clip-path="url(#a125d49cfb)"><g clip-path="url(#7e028fe0f7)"><g transform="matrix(1, 0, 0, 1, 847, 0.000000000000113687)"><g clip-path="url(#8cd5acf261)"><g clip-path="url(#502886d0d4)"><g clip-path="url(#9dcc0ee4a5)"><path fill="#ffffff" d="M 0.382812 0.179688 L 170.4375 0.179688 L 170.4375 129.746094 L 0.382812 129.746094 Z M 0.382812 0.179688 " fill-opacity="1" fill-rule="nonzero"/></g></g></g></g></g></g><g clip-path="url(#be7da78956)"><g clip-path="url(#a9100e6eee)"><g clip-path="url(#6c2249904f)"><g transform="matrix(1, 0, 0, 1, 48, 34)"><g clip-path="url(#a8d63fa595)"><g clip-path="url(#13360b2818)"><g clip-path="url(#821caaa3f3)"><g clip-path="url(#6982e58b67)"><path fill="#ffffff" d="M -11.921875 23.207031 L 42.625 -12.332031 L 78.164062 42.214844 L 23.617188 77.753906 Z M -11.921875 23.207031 " fill-opacity="1" fill-rule="nonzero"/></g></g></g></g></g></g></g></g><g clip-path="url(#ec3f416003)"><g clip-path="url(#198f39aa28)"><g clip-path="url(#ea772d2ac0)"><g transform="matrix(1, 0, 0, 1, 13, 57)"><g clip-path="url(#2503501770)"><g clip-path="url(#e0573adad0)"><g clip-path="url(#ebb60e3f9a)"><g clip-path="url(#f3d02de144)"><path fill="#ffffff" d="M -12.222656 23.328125 L 42.328125 -12.210938 L 77.867188 42.335938 L 23.316406 77.875 Z M -12.222656 23.328125 " fill-opacity="1" fill-rule="nonzero"/></g></g></g></g></g></g></g></g><g clip-path="url(#0d7e86cc0e)"><g clip-path="url(#d40414db50)"><g clip-path="url(#252a75e418)"><g transform="matrix(1, 0, 0, 1, 601, 49)"><g clip-path="url(#c1e29124ab)"><g clip-path="url(#3cc865b60d)"><g clip-path="url(#aefb685f79)"><g clip-path="url(#9d23409fa4)"><path fill="#ffffff" d="M -5.691406 12.816406 L 22.308594 -5.425781 L 40.550781 22.574219 L 12.550781 40.816406 Z M -5.691406 12.816406 " fill-opacity="1" fill-rule="nonzero"/></g></g></g></g></g></g></g></g><g clip-path="url(#f841e166a4)"><g clip-path="url(#58d49a9e28)"><g clip-path="url(#367e1fc9fe)"><g transform="matrix(1, 0, 0, 1, 624, 71)"><g clip-path="url(#40b58d11a6)"><g clip-path="url(#688dd3b75d)"><g clip-path="url(#b678ebbe49)"><g clip-path="url(#10bb35e021)"><path fill="#ffffff" d="M -5.570312 12.738281 L 22.429688 -5.503906 L 40.671875 22.496094 L 12.671875 40.738281 Z M -5.570312 12.738281 " fill-opacity="1" fill-rule="nonzero"/></g></g></g></g></g></g></g></g><g clip-path="url(#9e937d64c3)"><g clip-path="url(#01f5a504fa)"><g clip-path="url(#90f9493a3e)"><g transform="matrix(1, 0, 0, 1, 624, 53)"><g clip-path="url(#8ee8e1f768)"><g clip-path="url(#27441ffd19)"><g clip-path="url(#a709c2c9f6)"><g clip-path="url(#1a9cfbadf6)"><path fill="#ffffff" d="M -5.570312 12.820312 L 22.429688 -5.421875 L 40.671875 22.578125 L 12.671875 40.820312 Z M -5.570312 12.820312 " fill-opacity="1" fill-rule="nonzero"/></g></g></g></g></g></g></g></g><g clip-path="url(#7481e2075f)"><path fill="#f56d61" d="M 1360.390625 275.054688 C 1360.390625 275.054688 1365.011719 297.578125 1398.878906 280.4375 C 1398.878906 280.4375 1413.59375 269.613281 1393.789062 255.273438 C 1393.789062 255.273438 1367.4375 217.734375 1360.390625 275.054688 Z M 1360.390625 275.054688 " fill-opacity="1" fill-rule="nonzero"/></g><path fill="#f56d61" d="M 1424.191406 264.339844 C 1424.191406 264.339844 1426.445312 275.363281 1443.046875 266.96875 C 1443.046875 266.96875 1450.265625 261.65625 1440.566406 254.625 C 1440.566406 254.625 1427.648438 236.242188 1424.191406 264.339844 Z M 1424.191406 264.339844 " fill-opacity="1" fill-rule="nonzero"/><path fill="#f56d61" d="M 1415.21875 302.445312 C 1415.21875 302.445312 1377.324219 314.757812 1395.539062 328.109375 C 1413.722656 341.445312 1422.878906 346.15625 1422.878906 346.15625 C 1422.878906 346.15625 1453.214844 303.933594 1434.203125 303.191406 C 1415.21875 302.445312 1415.21875 302.445312 1415.21875 302.445312 Z M 1415.21875 302.445312 " fill-opacity="1" fill-rule="nonzero"/></g></g></svg>